# xmcd
#
# Track frame offsets: 
#        150
#        21292
#        34531
#        51381
#        83299
#        101418
#        113441
#        128563
#        146947
#        158597
#        181967
#        203396
#
# Disc length: 2899 seconds
#
# Revision: 1
# Processed by: cddbd v1.5.2PL0 Copyright (c) Steve Scherf et al.
# Submitted via: ExactAudioCopy v0.95b4
#
DISCID=890b510c
DTITLE=Various Artist - Blus - From Windy Chicago to Golden California
DYEAR=2003
DGENRE=Blues
TTITLE0=Buddy Guy and Junior Wells - Every Day I Have The Blues
TTITLE1=Canned Heat - Going Up Country
TTITLE2=Gatemouth Moore - Goin Down Slow
TTITLE3=Mike Bloomfield - Between A Hard Place And The Ground
TTITLE4=Charlie Brown - Driftin Blues
TTITLE5=Pee Wee Crayton - Lucille
TTITLE6=Canned Heat - On The Road Again
TTITLE7=Buddy Guy - Stone Crazy
TTITLE8=Johnny Otis - Willie and The Hand Jive
TTITLE9=Pee Wee Crayton - Blues After Hours
TTITLE10=Mike Bloomfield - Women Lovin Each Other
TTITLE11=Buddy Guy - Broken Hearted Blues
EXTD=
EXTT0=
EXTT1=
EXTT2=
EXTT3=
EXTT4=
EXTT5=
EXTT6=
EXTT7=
EXTT8=
EXTT9=
EXTT10=
EXTT11=
PLAYORDER=
